# xmcd
#
# Track frame offsets: 
#        150
#        22800
#        46329
#        70752
#        86496
#        116227
#        146777
#        168875
#        193477
#        206982
#        223209
#        250381
#        281677
#
# Disc length: 4328 seconds
#
# Revision: 0
# Processed by: cddbd v1.5.2PL0 Copyright (c) Steve Scherf et al.
# Submitted via: ExactAudioCopy v0.99pb5
#
DISCID=cf10e60d
DTITLE=DJ F - Only One
DYEAR=2003
DGENRE=Beat
TTITLE0=DJ F ft Hilary - The Only One
TTITLE1=Roux - Time to Shine (DJ F Mix)
TTITLE2=DJ F - Chain Control
TTITLE3=DJ F ft Hilary - Warrior Poet
TTITLE4=DJ F - Gardens of Delight
TTITLE5=DJ F - Once Again
TTITLE6=DJ F - Bedphones
TTITLE7=DJ F - Spin Platinum
TTITLE8=DJ F ft Hilary and Niall Gartlan - Edge of the Niall
TTITLE9=DJ F ft Tyler - The Plague
TTITLE10=DJ F - 2 My Funk
TTITLE11=DJ F - Squiggle
TTITLE12=DJ F - Chunky Monk
EXTD=
EXTT0=
EXTT1=
EXTT2=
EXTT3=
EXTT4=
EXTT5=
EXTT6=
EXTT7=
EXTT8=
EXTT9=
EXTT10=
EXTT11=
EXTT12=
PLAYORDER=
